<?xml version="1.0" standalone="no"?>
<!DOCTYPE svg PUBLIC "-//W3C//DTD SVG 20010904//EN"
 "http://www.w3.org/TR/2001/REC-SVG-20010904/DTD/svg10.dtd">
<svg version="1.0" xmlns="http://www.w3.org/2000/svg"
 width="1024.000000pt" height="1024.000000pt" viewBox="0 0 1024.000000 1024.000000"
 preserveAspectRatio="xMidYMid meet">

<g transform="translate(0.000000,1024.000000) scale(0.100000,-0.100000)"
fill="#000000" stroke="none">
<path d="M5910 8271 c-25 -9 -124 -58 -220 -108 -96 -50 -301 -155 -455 -233
-154 -78 -361 -184 -460 -235 -99 -51 -301 -154 -450 -230 -148 -76 -360 -184
-470 -240 -110 -56 -330 -169 -490 -251 -381 -194 -536 -277 -505 -270 14 4
72 18 130 32 58 14 204 49 325 79 307 75 1233 301 1705 416 523 127 1355 331
1357 333 2 2 0 11 -76 323 -33 133 -67 255 -75 272 -57 109 -197 159 -316 112z"/>
<path d="M6555 7469 c-381 -94 -810 -199 -1215 -298 -395 -96 -686 -167 -990
-241 -309 -76 -923 -225 -955 -233 -11 -3 845 -5 1903 -6 l1922 -1 0 331 c0
231 -4 344 -12 373 -8 26 -31 60 -63 91 -56 56 -103 76 -181 74 -27 -1 -211
-41 -409 -90z"/>
<path d="M2333 6556 c-171 -42 -314 -182 -359 -351 -11 -41 -14 -393 -14
-1940 0 -1268 4 -1905 11 -1935 27 -120 122 -246 230 -308 119 -67 -114 -62
2805 -62 2607 0 2643 0 2706 20 80 25 172 83 221 141 53 61 105 172 117 249 6
38 10 288 10 600 0 590 1 577 -63 624 -28 20 -42 21 -580 26 -498 5 -556 7
-597 23 -132 53 -224 149 -270 286 -18 55 -20 85 -20 328 0 291 5 330 55 422
33 60 124 150 183 180 96 49 121 51 678 51 l521 0 34 23 c60 40 60 41 57 667
-3 545 -4 567 -25 627 -55 162 -186 285 -350 328 -50 13 -385 15 -2678 14
-2059 -1 -2631 -3 -2672 -13z"/>
<path d="M6853 4759 c-67 -26 -137 -94 -171 -167 l-27 -57 0 -265 c0 -231 2
-272 18 -317 24 -70 93 -145 165 -180 l57 -28 610 -3 610 -2 44 22 c25 13 59
40 75 61 l31 39 3 385 c3 378 2 386 -19 430 -15 30 -37 55 -67 74 l-46 29
-615 -1 c-592 0 -618 -1 -668 -20z m375 -320 c116 -57 146 -207 60 -305 -79
-89 -199 -94 -283 -10 -158 158 22 412 223 315z"/>
</g>
</svg>
