<?xml version="1.0" encoding="iso-8859-1"?>
<!-- Uploaded to: SVG Repo, www.svgrepo.com, Generator: SVG Repo Mixer Tools -->
<svg fill="#000000" height="800px" width="800px" version="1.1" id="Layer_1" xmlns="http://www.w3.org/2000/svg" xmlns:xlink="http://www.w3.org/1999/xlink" 
	 viewBox="0 0 512.001 512.001" xml:space="preserve">
<g>
	<g>
		<g>
			<path d="M232.917,363.517c-4.446,0-8.05,3.604-8.05,8.05v27.192c0,4.446,3.604,8.05,8.05,8.05s8.05-3.604,8.05-8.05v-27.192
				C240.967,367.12,237.363,363.517,232.917,363.517z"/>
			<path d="M277.81,398.58c-4.446,0-8.05,3.604-8.05,8.05v45.082c0,4.446,3.604,8.05,8.05,8.05s8.05-3.604,8.05-8.05V406.63
				C285.86,402.184,282.256,398.58,277.81,398.58z"/>
			<path d="M470.39,496.424c-3.815-35.952-33.991-63.064-70.191-63.064H375.11c-14.397-12.03-31.888-19.247-50.614-20.858v-67.168
				h18.891c60.243,0,109.255-49.011,109.255-109.255c0-14.075-2.625-27.724-7.81-40.635c10.052-16.595,15.343-35.546,15.343-55.086
				c0-58.724-47.776-106.499-106.499-106.499c-5.778,0-11.561,0.469-17.251,1.396C316.213,12.792,287.628,0,257.261,0
				s-58.953,12.792-79.164,35.259c-5.692-0.928-11.478-1.398-17.258-1.398c-58.723,0-106.499,47.776-106.499,106.499
				c0,19.54,5.292,38.49,15.344,55.086c-5.185,12.912-7.811,26.561-7.811,40.635c0,60.243,49.011,109.255,109.255,109.255
				c6.405,0,12.709-0.55,18.891-1.625v94.335c-12.254-7.694-26.435-11.834-41.212-11.834c-23.159,0-45.277,10.505-59.978,28.295
				c-23.44,0.773-43.105,17.789-47.092,41.031c-0.706,4.117,0.428,8.306,3.113,11.49c2.664,3.16,6.565,4.973,10.699,4.973h400.902
				c3.962,0,7.753-1.69,10.402-4.634C469.524,504.397,470.813,500.41,470.39,496.424z M171.128,329.235
				c-51.365,0-93.154-41.789-93.154-93.154c0-13.264,2.731-26.077,8.116-38.081c1.13-2.52,0.89-5.443-0.637-7.744
				c-9.82-14.806-15.012-32.06-15.012-49.895c0-49.845,40.553-90.399,90.399-90.399c6.281,0,12.567,0.652,18.683,1.936
				c2.932,0.615,5.969-0.45,7.873-2.766c17.259-20.992,42.724-33.032,69.865-33.032s52.605,12.039,69.864,33.031
				c1.904,2.316,4.939,3.382,7.873,2.766c6.114-1.284,12.397-1.935,18.677-1.935c49.845,0,90.399,40.553,90.399,90.399
				c0,17.836-5.191,35.089-15.011,49.895c-1.526,2.301-1.767,5.225-0.636,7.744c5.385,12.005,8.115,24.816,8.115,38.081
				c0,51.365-41.789,93.154-93.154,93.154c-14.48,0-28.359-3.235-41.253-9.615c-1.118-0.554-2.342-0.835-3.57-0.835
				c-0.755,0-1.511,0.106-2.248,0.32c-12.649,3.678-25.79,5.544-39.059,5.544c-13.269,0-26.41-1.866-39.059-5.544
				c-1.935-0.562-4.011-0.379-5.818,0.514C199.487,326,185.607,329.235,171.128,329.235z M58.097,495.898
				c3.642-14.807,16.903-25.319,32.396-25.319c0.604,0,1.205,0.018,1.802,0.049c2.693,0.149,5.295-1.079,6.903-3.256
				c11.592-15.693,30.137-25.062,49.608-25.062c16.181,0,31.474,6.235,43.062,17.556c1.931,1.887,4.68,2.678,7.32,2.111
				c2.997-0.646,6.056-0.972,9.09-0.972c20.929,0,38.408,15.047,42.186,34.892H58.097z M308.396,495.899h-41.637
				c-3.94-28.76-28.655-50.993-58.48-50.993c-0.719,0-1.439,0.015-2.16,0.042V339.613c3.578-1.214,7.104-2.615,10.571-4.21
				c13.186,3.55,26.817,5.348,40.567,5.348c13.751,0,27.381-1.798,40.567-5.348c3.467,1.596,6.994,2.997,10.572,4.211V495.899z
				 M324.496,495.899v-67.227c17.694,1.853,33.986,9.798,46.527,22.848c2.278,2.37,5.768,3.117,8.816,1.888
				c6.495-2.619,13.345-3.947,20.361-3.947c27.192,0,49.981,19.81,53.9,46.437H324.496z"/>
		</g>
	</g>
</g>
</svg>