<?xml version="1.0" encoding="UTF-8" standalone="no"?>
<svg
   width="256"
   height="256"
   viewBox="0 0 256 256"
   version="1.1"
   id="svg2"
   sodipodi:docname="ue010.svg"
   inkscape:version="1.4.2 (f4327f4, 2025-05-13)"
   xmlns:inkscape="http://www.inkscape.org/namespaces/inkscape"
   xmlns:sodipodi="http://sodipodi.sourceforge.net/DTD/sodipodi-0.dtd"
   xmlns="http://www.w3.org/2000/svg"
   xmlns:svg="http://www.w3.org/2000/svg">
  <defs
     id="defs2" />
  <sodipodi:namedview
     id="namedview2"
     pagecolor="#ffffff"
     bordercolor="#000000"
     borderopacity="0.25"
     inkscape:showpageshadow="2"
     inkscape:pageopacity="0.0"
     inkscape:pagecheckerboard="0"
     inkscape:deskcolor="#d1d1d1"
     showgrid="false"
     inkscape:zoom="0.39404298"
     inkscape:cx="-383.20693"
     inkscape:cy="-239.82156"
     inkscape:window-width="1920"
     inkscape:window-height="1009"
     inkscape:window-x="-8"
     inkscape:window-y="-8"
     inkscape:window-maximized="1"
     inkscape:current-layer="layer4" />
  <g
     inkscape:groupmode="layer"
     id="layer1"
     inkscape:label="Fundo">
    <rect
       style="fill:#6a6b6e;fill-opacity:0.6;stroke:#000000"
       id="rect3"
       width="240"
       height="240"
       x="8"
       y="8"
       rx="20.0002"
       ry="20"
       inkscape:label="Fundo"
       sodipodi:insensitive="true" />
  </g>
  <!-- Borda externa -->
  <!-- Borda interna (chanfro / brilho suave) -->
  <!-- Aqui dentro você desenha o ícone depois -->
  <!-- <g id="icon"> … </g> -->
  <g
     inkscape:groupmode="layer"
     id="layer3"
     inkscape:label="Borda"
     sodipodi:insensitive="true">
    <rect
       x="8"
       y="8"
       width="240"
       height="240"
       rx="28"
       ry="28"
       fill="none"
       stroke="#2b1a10"
       stroke-width="8"
       id="rect1"
       inkscape:label="Externa" />
    <rect
       x="16"
       y="16"
       width="224"
       height="224"
       rx="22"
       ry="22"
       fill="none"
       stroke="#6b4a32"
       stroke-width="4"
       id="rect2"
       inkscape:label="Interna" />
  </g>
  <g
     inkscape:groupmode="layer"
     id="layer2"
     inkscape:label="Contract" />
  <g
     inkscape:groupmode="layer"
     id="layer4"
     inkscape:label="Upgrade">
    <g
       id="g2"
       transform="matrix(9.0775756,0,0,9.0775756,19.785124,15.958259)"
       style="fill:#000000;fill-opacity:0">
      <path
         d="M 12,6.90909 C 10.8999,5.50893 9.20406,4.10877 5.00119,4.00602 4.72513,3.99928 4.5,4.22351 4.5,4.49965 c 0,2.04848 0,9.80375 0,12.09735 0,0.2761 0.22515,0.493 0.50114,0.502 C 9.20405,17.2364 10.8999,19.0998 12,20.5 M 12,6.90909 C 13.1001,5.50893 14.7959,4.10877 18.9988,4.00602 19.2749,3.99928 19.5,4.21847 19.5,4.49461 c 0,2.28986 0,9.81179 0,12.10169 0,0.2761 -0.2251,0.4937 -0.5011,0.5027 C 14.796,17.2364 13.1001,19.0998 12,20.5 M 12,6.90909 V 20.5"
         stroke="#000000"
         stroke-linejoin="round"
         id="path1"
         style="fill:#000000;fill-opacity:0" />
      <path
         d="M 19.2353,6 H 21.5 C 21.7761,6 22,6.22386 22,6.5 v 13.039 c 0,0.4046 -0.4767,0.6734 -0.8465,0.5091 -0.7951,-0.3533 -2.122,-0.7849 -3.8594,-0.7849 C 14.3529,19.2632 12,21 12,21 c 0,0 -2.35294,-1.7368 -5.29412,-1.7368 -1.73743,0 -3.06432,0.4316 -3.85941,0.7849 C 2.47668,20.2124 2,19.9436 2,19.539 V 6.5 C 2,6.22386 2.22386,6 2.5,6 h 2.26471"
         stroke="#000000"
         stroke-linejoin="round"
         id="path2"
         style="fill:#000000;fill-opacity:0" />
    </g>
  </g>
</svg>
